<svg xmlns="http://www.w3.org/2000/svg" xmlns:xlink="http://www.w3.org/1999/xlink" width="500" zoomAndPan="magnify" viewBox="0 0 375 149.999998" height="200" preserveAspectRatio="xMidYMid meet" version="1.0"><defs><g/><clipPath id="1c96986db8"><path d="M 202 0.121094 L 344.398438 0.121094 L 344.398438 127.558594 L 202 127.558594 Z M 202 0.121094 " clip-rule="nonzero"/></clipPath><clipPath id="a716a2bf0d"><rect x="0" width="143" y="0" height="128"/></clipPath><clipPath id="be2049c169"><rect x="0" width="54" y="0" height="26"/></clipPath><clipPath id="e1cb85480f"><rect x="0" width="97" y="0" height="28"/></clipPath><clipPath id="baf9bc1ee3"><rect x="0" width="345" y="0" height="128"/></clipPath></defs><g transform="matrix(1, 0, 0, 1, 6, 9)"><g clip-path="url(#baf9bc1ee3)"><g clip-path="url(#1c96986db8)"><g transform="matrix(1, 0, 0, 1, 202, -0.000000000000007105)"><g clip-path="url(#a716a2bf0d)"><g fill="#ffffff" fill-opacity="1"><g transform="translate(1.273279, 73.130221)"><g><path d="M 33.65625 37.25 C 34.90625 37.25 36.101562 36.523438 37.25 35.078125 C 38.394531 33.628906 39.476562 31.78125 40.5 29.53125 C 41.53125 27.28125 42.429688 24.914062 43.203125 22.4375 C 43.984375 19.96875 44.609375 17.679688 45.078125 15.578125 C 45.554688 13.484375 45.820312 11.890625 45.875 10.796875 C 45.375 11.191406 44.9375 11.648438 44.5625 12.171875 C 44.1875 12.703125 43.75 13.191406 43.25 13.640625 C 41.945312 14.941406 40.570312 16.53125 39.125 18.40625 C 37.675781 20.28125 36.351562 22.203125 35.15625 24.171875 C 33.957031 26.148438 33.082031 27.960938 32.53125 29.609375 C 32.382812 30.109375 32.207031 30.78125 32 31.625 C 31.800781 32.476562 31.675781 33.328125 31.625 34.171875 C 31.582031 35.023438 31.707031 35.75 32 36.34375 C 32.300781 36.945312 32.851562 37.25 33.65625 37.25 Z M 0 -6.453125 C 0 -9.648438 0.273438 -12.957031 0.828125 -16.375 C 1.378906 -19.800781 2.140625 -23.175781 3.109375 -26.5 C 4.085938 -29.820312 5.222656 -32.90625 6.515625 -35.75 C 7.367188 -37.5 8.394531 -39.359375 9.59375 -41.328125 C 10.789062 -43.304688 12.164062 -45.171875 13.71875 -46.921875 C 15.269531 -48.671875 16.96875 -50.09375 18.8125 -51.1875 C 20.664062 -52.289062 22.691406 -52.84375 24.890625 -52.84375 C 26.835938 -52.84375 28.671875 -52.253906 30.390625 -51.078125 C 32.117188 -49.898438 33.609375 -48.066406 34.859375 -45.578125 C 36.304688 -42.671875 37.191406 -39.367188 37.515625 -35.671875 C 37.835938 -31.972656 37.796875 -28.25 37.390625 -24.5 C 36.992188 -20.757812 36.398438 -17.289062 35.609375 -14.09375 C 35.253906 -12.644531 34.976562 -11.65625 34.78125 -11.125 C 34.582031 -10.601562 34.253906 -10.34375 33.796875 -10.34375 C 33.648438 -10.34375 33.460938 -10.378906 33.234375 -10.453125 C 33.015625 -10.523438 32.753906 -10.585938 32.453125 -10.640625 C 32.253906 -11.691406 32.203125 -12.539062 32.296875 -13.1875 C 32.398438 -13.84375 32.523438 -14.71875 32.671875 -15.8125 C 33.128906 -17.914062 33.46875 -19.753906 33.6875 -21.328125 C 33.914062 -22.898438 34.050781 -24.484375 34.09375 -26.078125 C 34.144531 -27.679688 34.171875 -29.554688 34.171875 -31.703125 C 34.171875 -33.304688 33.992188 -35.082031 33.640625 -37.03125 C 33.296875 -38.976562 32.75 -40.847656 32 -42.640625 C 31.25 -44.441406 30.300781 -45.929688 29.15625 -47.109375 C 28.007812 -48.285156 26.609375 -48.875 24.953125 -48.875 C 23.109375 -48.875 21.375 -48.269531 19.75 -47.0625 C 18.125 -45.863281 16.597656 -44.316406 15.171875 -42.421875 C 13.753906 -40.523438 12.484375 -38.488281 11.359375 -36.3125 C 10.234375 -34.132812 9.269531 -32.035156 8.46875 -30.015625 C 7.664062 -27.992188 7.066406 -26.285156 6.671875 -24.890625 C 6.066406 -22.890625 5.488281 -20.515625 4.9375 -17.765625 C 4.394531 -15.015625 4.007812 -12.148438 3.78125 -9.171875 C 3.5625 -6.203125 3.585938 -3.332031 3.859375 -0.5625 C 4.128906 2.207031 4.789062 4.671875 5.84375 6.828125 C 6.195312 7.523438 6.609375 8.257812 7.078125 9.03125 C 7.554688 9.800781 8.117188 10.4375 8.765625 10.9375 C 9.617188 11.6875 10.53125 12.222656 11.5 12.546875 C 12.476562 12.878906 13.46875 13.046875 14.46875 13.046875 C 16.3125 13.046875 18.171875 12.628906 20.046875 11.796875 C 21.921875 10.972656 23.679688 9.960938 25.328125 8.765625 C 26.984375 7.566406 28.359375 6.421875 29.453125 5.328125 L 33.5 0.90625 C 35.351562 -1.445312 36.851562 -3.625 38 -5.625 C 39.144531 -7.625 40.46875 -9.921875 41.96875 -12.515625 C 42.375 -13.210938 42.875 -14.125 43.46875 -15.25 C 44.070312 -16.375 44.722656 -17.5 45.421875 -18.625 C 46.117188 -19.75 46.816406 -20.695312 47.515625 -21.46875 C 48.210938 -22.25 48.863281 -22.640625 49.46875 -22.640625 C 50.164062 -22.640625 50.6875 -22.273438 51.03125 -21.546875 C 51.382812 -20.828125 51.625 -19.941406 51.75 -18.890625 C 51.875 -17.835938 51.9375 -16.785156 51.9375 -15.734375 C 51.9375 -14.691406 51.9375 -13.84375 51.9375 -13.1875 C 51.9375 -9.84375 51.710938 -6.742188 51.265625 -3.890625 C 50.816406 -1.046875 50.566406 1.125 50.515625 2.625 C 50.765625 2.476562 50.925781 2.328125 51 2.171875 C 51.082031 2.023438 51.296875 1.851562 51.640625 1.65625 C 51.890625 1.40625 52.085938 1.238281 52.234375 1.15625 C 52.390625 1.082031 52.59375 0.945312 52.84375 0.75 L 63.265625 -9.4375 C 63.554688 -9.84375 63.953125 -10.332031 64.453125 -10.90625 C 64.953125 -11.476562 65.476562 -12 66.03125 -12.46875 C 66.582031 -12.945312 67.109375 -13.1875 67.609375 -13.1875 C 68.359375 -13.1875 68.644531 -12.925781 68.46875 -12.40625 C 68.289062 -11.882812 67.914062 -11.257812 67.34375 -10.53125 C 66.769531 -9.800781 66.171875 -9.125 65.546875 -8.5 C 64.921875 -7.875 64.535156 -7.460938 64.390625 -7.265625 C 63.890625 -6.765625 63.453125 -6.273438 63.078125 -5.796875 C 62.703125 -5.328125 62.238281 -4.84375 61.6875 -4.34375 L 50.4375 6.296875 C 49.9375 6.742188 49.632812 7.367188 49.53125 8.171875 C 49.4375 8.972656 49.289062 9.695312 49.09375 10.34375 C 48.738281 12.289062 48.25 14.5625 47.625 17.15625 C 47.007812 19.757812 46.25 22.394531 45.34375 25.0625 C 44.445312 27.738281 43.382812 30.210938 42.15625 32.484375 C 40.9375 34.765625 39.523438 36.578125 37.921875 37.921875 C 37.578125 38.222656 37.039062 38.585938 36.3125 39.015625 C 35.59375 39.441406 34.957031 39.65625 34.40625 39.65625 C 32.65625 39.65625 31.429688 39.300781 30.734375 38.59375 C 30.035156 37.894531 29.632812 36.992188 29.53125 35.890625 C 29.425781 34.796875 29.375 33.675781 29.375 32.53125 C 29.375 30.882812 29.75 29.171875 30.5 27.390625 C 31.25 25.617188 32.210938 23.867188 33.390625 22.140625 C 34.566406 20.421875 35.753906 18.785156 36.953125 17.234375 C 38.148438 15.691406 39.195312 14.34375 40.09375 13.1875 C 40.445312 12.789062 40.785156 12.441406 41.109375 12.140625 C 41.429688 11.835938 41.71875 11.460938 41.96875 11.015625 C 42.914062 9.816406 43.691406 9.003906 44.296875 8.578125 C 44.898438 8.148438 45.375 7.8125 45.71875 7.5625 C 46.070312 7.320312 46.359375 6.910156 46.578125 6.328125 C 46.804688 5.753906 47.046875 4.71875 47.296875 3.21875 C 47.441406 2.019531 47.648438 0.382812 47.921875 -1.6875 C 48.203125 -3.757812 48.453125 -5.929688 48.671875 -8.203125 C 48.898438 -10.484375 49.039062 -12.617188 49.09375 -14.609375 C 49.144531 -16.609375 49.046875 -18.132812 48.796875 -19.1875 L 45.578125 -13.859375 C 44.523438 -12.210938 43.648438 -10.773438 42.953125 -9.546875 C 42.253906 -8.328125 41.578125 -7.164062 40.921875 -6.0625 C 40.273438 -4.96875 39.535156 -3.804688 38.703125 -2.578125 C 37.878906 -1.359375 36.847656 0.0703125 35.609375 1.71875 C 34.648438 3.070312 33.382812 4.535156 31.8125 6.109375 C 30.238281 7.679688 28.488281 9.191406 26.5625 10.640625 C 24.644531 12.085938 22.710938 13.273438 20.765625 14.203125 C 18.816406 15.128906 16.992188 15.59375 15.296875 15.59375 C 13.546875 15.59375 11.96875 15.476562 10.5625 15.25 C 9.164062 15.03125 7.816406 14.242188 6.515625 12.890625 C 4.066406 10.390625 2.367188 7.515625 1.421875 4.265625 C 0.472656 1.023438 0 -2.546875 0 -6.453125 Z M 0 -6.453125 "/></g></g></g><g fill="#ffffff" fill-opacity="1"><g transform="translate(66.183199, 73.130221)"><g><path d="M 0 -7.5625 C 0 -8.613281 0.25 -9.914062 0.75 -11.46875 C 1.25 -13.019531 1.945312 -14.554688 2.84375 -16.078125 C 3.75 -17.597656 4.785156 -18.859375 5.953125 -19.859375 C 7.128906 -20.859375 8.367188 -21.359375 9.671875 -21.359375 C 10.867188 -21.359375 11.84375 -21.007812 12.59375 -20.3125 C 13.34375 -19.613281 13.789062 -18.898438 13.9375 -18.171875 C 14.09375 -17.453125 13.84375 -17.09375 13.1875 -17.09375 C 12.6875 -17.09375 12.175781 -17.378906 11.65625 -17.953125 C 11.132812 -18.523438 10.519531 -18.8125 9.8125 -18.8125 C 9.269531 -18.8125 8.609375 -18.484375 7.828125 -17.828125 C 7.054688 -17.179688 6.117188 -15.910156 5.015625 -14.015625 C 4.515625 -13.210938 4.050781 -12.175781 3.625 -10.90625 C 3.207031 -9.632812 3 -8.375 3 -7.125 C 3.09375 -7.21875 3.128906 -7.253906 3.109375 -7.234375 C 3.085938 -7.210938 3.175781 -7.300781 3.375 -7.5 L 3.96875 -8.390625 C 4.375 -8.992188 4.835938 -9.769531 5.359375 -10.71875 C 5.878906 -11.664062 6.414062 -12.625 6.96875 -13.59375 C 7.519531 -14.570312 8.019531 -15.398438 8.46875 -16.078125 C 8.914062 -16.753906 9.265625 -17.09375 9.515625 -17.09375 C 10.421875 -17.09375 10.945312 -16.765625 11.09375 -16.109375 C 11.238281 -15.460938 11.300781 -14.664062 11.28125 -13.71875 C 11.257812 -12.769531 11.347656 -11.820312 11.546875 -10.875 C 11.847656 -9.519531 12.304688 -8.53125 12.921875 -7.90625 C 13.546875 -7.28125 14.257812 -6.96875 15.0625 -6.96875 C 16.46875 -6.96875 18.019531 -7.816406 19.71875 -9.515625 C 20.414062 -10.171875 20.910156 -10.707031 21.203125 -11.125 C 21.503906 -11.550781 21.90625 -12.039062 22.40625 -12.59375 C 22.757812 -13.09375 23.210938 -13.34375 23.765625 -13.34375 C 24.304688 -13.34375 24.539062 -12.878906 24.46875 -11.953125 C 24.394531 -11.023438 23.410156 -9.640625 21.515625 -7.796875 L 19.265625 -6 C 17.816406 -5 16.414062 -4.5 15.0625 -4.5 C 13.8125 -4.5 12.722656 -4.875 11.796875 -5.625 C 10.878906 -6.375 10.171875 -7.296875 9.671875 -8.390625 C 9.171875 -9.492188 8.921875 -10.570312 8.921875 -11.625 C 8.566406 -11.375 8.164062 -10.820312 7.71875 -9.96875 C 7.269531 -9.113281 6.78125 -8.195312 6.25 -7.21875 C 5.726562 -6.25 5.191406 -5.398438 4.640625 -4.671875 C 4.097656 -3.953125 3.550781 -3.59375 3 -3.59375 C 1.601562 -3.59375 0.753906 -3.914062 0.453125 -4.5625 C 0.148438 -5.21875 0 -6.21875 0 -7.5625 Z M 0 -7.5625 "/></g></g></g><g fill="#ffffff" fill-opacity="1"><g transform="translate(87.919775, 73.130221)"><g><path d="M 6.21875 0.296875 C 5.21875 0.296875 4.332031 -0.0234375 3.5625 -0.671875 C 2.789062 -1.328125 2.203125 -2.003906 1.796875 -2.703125 C 0.898438 -4.398438 0.390625 -6.410156 0.265625 -8.734375 C 0.140625 -11.054688 0.273438 -13.164062 0.671875 -15.0625 C 0.773438 -15.613281 0.910156 -16.273438 1.078125 -17.046875 C 1.253906 -17.828125 1.519531 -18.515625 1.875 -19.109375 C 2.226562 -19.710938 2.648438 -20.015625 3.140625 -20.015625 C 4.296875 -20.015625 4.859375 -19.625 4.828125 -18.84375 C 4.804688 -18.070312 4.59375 -16.875 4.1875 -15.25 C 3.789062 -13.625 3.59375 -11.539062 3.59375 -9 C 3.59375 -8.25 3.691406 -7.347656 3.890625 -6.296875 C 4.097656 -5.242188 4.410156 -4.316406 4.828125 -3.515625 C 5.253906 -2.722656 5.796875 -2.328125 6.453125 -2.328125 C 7.242188 -2.328125 8.148438 -2.675781 9.171875 -3.375 C 10.203125 -4.070312 11.15625 -4.859375 12.03125 -5.734375 C 12.90625 -6.609375 13.515625 -7.269531 13.859375 -7.71875 C 13.960938 -7.820312 14.238281 -8.160156 14.6875 -8.734375 C 15.132812 -9.304688 15.671875 -9.953125 16.296875 -10.671875 C 16.921875 -11.398438 17.53125 -12.039062 18.125 -12.59375 C 18.726562 -13.144531 19.207031 -13.421875 19.5625 -13.421875 C 19.914062 -13.421875 20.09375 -13.117188 20.09375 -12.515625 C 20.09375 -12.171875 19.851562 -11.632812 19.375 -10.90625 C 18.894531 -10.175781 18.332031 -9.410156 17.6875 -8.609375 C 17.039062 -7.816406 16.40625 -7.070312 15.78125 -6.375 C 15.15625 -5.675781 14.691406 -5.175781 14.390625 -4.875 C 13.785156 -4.269531 13.070312 -3.554688 12.25 -2.734375 C 11.425781 -1.910156 10.515625 -1.195312 9.515625 -0.59375 C 8.515625 0 7.414062 0.296875 6.21875 0.296875 Z M 3.828125 -29.453125 C 3.828125 -30.304688 4.050781 -31.046875 4.5 -31.671875 C 4.945312 -32.296875 5.445312 -32.609375 6 -32.609375 C 6.59375 -32.609375 7.09375 -32.234375 7.5 -31.484375 C 8.195312 -30.078125 8.28125 -28.988281 7.75 -28.21875 C 7.226562 -27.445312 6.59375 -27.0625 5.84375 -27.0625 C 5.34375 -27.0625 4.878906 -27.257812 4.453125 -27.65625 C 4.035156 -28.050781 3.828125 -28.648438 3.828125 -29.453125 Z M 3.828125 -29.453125 "/></g></g></g><g fill="#ffffff" fill-opacity="1"><g transform="translate(105.009226, 73.130221)"><g><path d="M 1.046875 -0.296875 C 0.546875 -0.296875 0.242188 -0.609375 0.140625 -1.234375 C 0.046875 -1.859375 0.0234375 -2.519531 0.078125 -3.21875 C 0.128906 -3.914062 0.15625 -4.34375 0.15625 -4.5 C 0.101562 -5.394531 0.0859375 -6.304688 0.109375 -7.234375 C 0.140625 -8.160156 0.128906 -9.097656 0.078125 -10.046875 C 0.078125 -10.390625 0.0859375 -11.046875 0.109375 -12.015625 C 0.140625 -12.992188 0.21875 -14.035156 0.34375 -15.140625 C 0.46875 -16.242188 0.65625 -17.191406 0.90625 -17.984375 C 1.15625 -18.785156 1.476562 -19.1875 1.875 -19.1875 C 2.875 -19.1875 3.382812 -18.859375 3.40625 -18.203125 C 3.4375 -17.554688 3.398438 -16.710938 3.296875 -15.671875 C 3.242188 -15.316406 3.21875 -14.925781 3.21875 -14.5 C 3.21875 -14.070312 3.21875 -13.660156 3.21875 -13.265625 C 3.21875 -12.765625 3.191406 -12.4375 3.140625 -12.28125 C 3.097656 -12.132812 3.078125 -11.8125 3.078125 -11.3125 C 3.617188 -11.71875 4.113281 -12.179688 4.5625 -12.703125 C 5.019531 -13.222656 5.820312 -13.484375 6.96875 -13.484375 C 7.320312 -13.484375 7.785156 -13.492188 8.359375 -13.515625 C 8.929688 -13.546875 9.539062 -13.5625 10.1875 -13.5625 C 11.289062 -13.5625 12.316406 -13.5 13.265625 -13.375 C 14.210938 -13.25 14.6875 -12.9375 14.6875 -12.4375 C 14.6875 -11.9375 14.421875 -11.613281 13.890625 -11.46875 C 13.367188 -11.320312 12.738281 -11.25 12 -11.25 C 11.5 -11.25 10.984375 -11.257812 10.453125 -11.28125 C 9.929688 -11.300781 9.46875 -11.3125 9.0625 -11.3125 C 7.664062 -11.3125 6.726562 -11.238281 6.25 -11.09375 C 5.78125 -10.945312 5.242188 -10.375 4.640625 -9.375 C 4.296875 -8.71875 3.957031 -8.015625 3.625 -7.265625 C 3.300781 -6.515625 3.066406 -5.691406 2.921875 -4.796875 C 2.773438 -4.148438 2.710938 -3.472656 2.734375 -2.765625 C 2.753906 -2.066406 2.675781 -1.476562 2.5 -1 C 2.332031 -0.53125 1.847656 -0.296875 1.046875 -0.296875 Z M 1.046875 -0.296875 "/></g></g></g><g fill="#ffffff" fill-opacity="1"><g transform="translate(117.226682, 73.130221)"><g><path d="M 0 -7.5625 C 0 -8.613281 0.25 -9.914062 0.75 -11.46875 C 1.25 -13.019531 1.945312 -14.554688 2.84375 -16.078125 C 3.75 -17.597656 4.785156 -18.859375 5.953125 -19.859375 C 7.128906 -20.859375 8.367188 -21.359375 9.671875 -21.359375 C 10.867188 -21.359375 11.84375 -21.007812 12.59375 -20.3125 C 13.34375 -19.613281 13.789062 -18.898438 13.9375 -18.171875 C 14.09375 -17.453125 13.84375 -17.09375 13.1875 -17.09375 C 12.6875 -17.09375 12.175781 -17.378906 11.65625 -17.953125 C 11.132812 -18.523438 10.519531 -18.8125 9.8125 -18.8125 C 9.269531 -18.8125 8.609375 -18.484375 7.828125 -17.828125 C 7.054688 -17.179688 6.117188 -15.910156 5.015625 -14.015625 C 4.515625 -13.210938 4.050781 -12.175781 3.625 -10.90625 C 3.207031 -9.632812 3 -8.375 3 -7.125 C 3.09375 -7.21875 3.128906 -7.253906 3.109375 -7.234375 C 3.085938 -7.210938 3.175781 -7.300781 3.375 -7.5 L 3.96875 -8.390625 C 4.375 -8.992188 4.835938 -9.769531 5.359375 -10.71875 C 5.878906 -11.664062 6.414062 -12.625 6.96875 -13.59375 C 7.519531 -14.570312 8.019531 -15.398438 8.46875 -16.078125 C 8.914062 -16.753906 9.265625 -17.09375 9.515625 -17.09375 C 10.421875 -17.09375 10.945312 -16.765625 11.09375 -16.109375 C 11.238281 -15.460938 11.300781 -14.664062 11.28125 -13.71875 C 11.257812 -12.769531 11.347656 -11.820312 11.546875 -10.875 C 11.847656 -9.519531 12.304688 -8.53125 12.921875 -7.90625 C 13.546875 -7.28125 14.257812 -6.96875 15.0625 -6.96875 C 16.46875 -6.96875 18.019531 -7.816406 19.71875 -9.515625 C 20.414062 -10.171875 20.910156 -10.707031 21.203125 -11.125 C 21.503906 -11.550781 21.90625 -12.039062 22.40625 -12.59375 C 22.757812 -13.09375 23.210938 -13.34375 23.765625 -13.34375 C 24.304688 -13.34375 24.539062 -12.878906 24.46875 -11.953125 C 24.394531 -11.023438 23.410156 -9.640625 21.515625 -7.796875 L 19.265625 -6 C 17.816406 -5 16.414062 -4.5 15.0625 -4.5 C 13.8125 -4.5 12.722656 -4.875 11.796875 -5.625 C 10.878906 -6.375 10.171875 -7.296875 9.671875 -8.390625 C 9.171875 -9.492188 8.921875 -10.570312 8.921875 -11.625 C 8.566406 -11.375 8.164062 -10.820312 7.71875 -9.96875 C 7.269531 -9.113281 6.78125 -8.195312 6.25 -7.21875 C 5.726562 -6.25 5.191406 -5.398438 4.640625 -4.671875 C 4.097656 -3.953125 3.550781 -3.59375 3 -3.59375 C 1.601562 -3.59375 0.753906 -3.914062 0.453125 -4.5625 C 0.148438 -5.21875 0 -6.21875 0 -7.5625 Z M 0 -7.5625 "/></g></g></g></g></g></g><g transform="matrix(1, 0, 0, 1, 286, 79)"><g clip-path="url(#be2049c169)"><g fill="#ffffff" fill-opacity="1"><g transform="translate(0.505863, 20.617131)"><g><path d="M 3.796875 0.140625 C 2.859375 0.140625 2.179688 -0.0664062 1.765625 -0.484375 C 1.359375 -0.898438 1.148438 -1.59375 1.140625 -2.5625 C 1.109375 -4.5 1.09375 -6.390625 1.09375 -8.234375 C 1.09375 -10.085938 1.109375 -11.984375 1.140625 -13.921875 C 1.148438 -14.816406 1.359375 -15.488281 1.765625 -15.9375 C 2.179688 -16.394531 2.859375 -16.625 3.796875 -16.625 C 4.734375 -16.625 5.410156 -16.410156 5.828125 -15.984375 C 6.242188 -15.566406 6.46875 -14.878906 6.5 -13.921875 C 6.507812 -13.660156 6.515625 -13.328125 6.515625 -12.921875 C 6.515625 -12.523438 6.507812 -12.128906 6.5 -11.734375 C 6.5 -11.347656 6.5 -11.023438 6.5 -10.765625 L 5.109375 -10.765625 C 5.128906 -11.285156 5.140625 -11.84375 5.140625 -12.4375 C 5.148438 -13.039062 5.148438 -13.601562 5.140625 -14.125 C 5.117188 -14.601562 5.003906 -14.945312 4.796875 -15.15625 C 4.597656 -15.363281 4.265625 -15.46875 3.796875 -15.46875 C 3.335938 -15.46875 3.007812 -15.363281 2.8125 -15.15625 C 2.613281 -14.945312 2.507812 -14.601562 2.5 -14.125 C 2.457031 -12.09375 2.4375 -10.132812 2.4375 -8.25 C 2.4375 -6.363281 2.457031 -4.394531 2.5 -2.34375 C 2.507812 -1.863281 2.617188 -1.519531 2.828125 -1.3125 C 3.035156 -1.113281 3.359375 -1.015625 3.796875 -1.015625 C 4.285156 -1.015625 4.640625 -1.113281 4.859375 -1.3125 C 5.085938 -1.519531 5.207031 -1.863281 5.21875 -2.34375 C 5.226562 -2.914062 5.226562 -3.515625 5.21875 -4.140625 C 5.21875 -4.773438 5.210938 -5.375 5.203125 -5.9375 L 6.578125 -5.9375 C 6.585938 -5.363281 6.59375 -4.800781 6.59375 -4.25 C 6.59375 -3.695312 6.585938 -3.132812 6.578125 -2.5625 C 6.546875 -1.59375 6.316406 -0.898438 5.890625 -0.484375 C 5.472656 -0.0664062 4.773438 0.140625 3.796875 0.140625 Z M 3.796875 0.140625 "/></g></g></g><g fill="#ffffff" fill-opacity="1"><g transform="translate(8.385568, 20.617131)"><g><path d="M 1.09375 0 L 1.09375 -16.5 L 5.734375 -16.5 L 5.734375 -15.265625 L 2.453125 -15.265625 L 2.453125 -8.90625 L 5.53125 -8.90625 L 5.53125 -7.6875 L 2.453125 -7.6875 L 2.453125 -1.234375 L 5.734375 -1.234375 L 5.734375 0 Z M 1.09375 0 "/></g></g></g><g fill="#ffffff" fill-opacity="1"><g transform="translate(15.275179, 20.617131)"><g><path d="M 1.09375 0 L 1.09375 -16.5 L 3.546875 -16.5 L 4.4375 -11.28125 L 5.984375 -1.234375 L 6.421875 -1.234375 L 6.203125 -10.703125 L 6.109375 -16.5 L 7.453125 -16.5 L 7.453125 0 L 4.921875 0 L 3.953125 -5.921875 L 2.578125 -15.265625 L 2.140625 -15.265625 L 2.328125 -6.234375 L 2.4375 0 Z M 1.09375 0 "/></g></g></g><g fill="#ffffff" fill-opacity="1"><g transform="translate(24.289361, 20.617131)"><g><path d="M 2.640625 0 L 2.640625 -15.265625 L 0.53125 -15.265625 L 0.53125 -16.5 L 6.109375 -16.5 L 6.109375 -15.265625 L 4.015625 -15.265625 L 4.015625 0 Z M 2.640625 0 "/></g></g></g><g fill="#ffffff" fill-opacity="1"><g transform="translate(31.426495, 20.617131)"><g><path d="M 1.09375 0 L 1.09375 -16.5 L 3.59375 -16.5 C 4.519531 -16.5 5.195312 -16.289062 5.625 -15.875 C 6.050781 -15.46875 6.28125 -14.789062 6.3125 -13.84375 C 6.351562 -12.914062 6.375 -12.0625 6.375 -11.28125 C 6.375 -10.5 6.351562 -9.726562 6.3125 -8.96875 C 6.269531 -7.664062 5.820312 -6.851562 4.96875 -6.53125 L 6.640625 0 L 5.171875 0 L 3.671875 -6.296875 L 2.453125 -6.296875 L 2.453125 0 Z M 2.453125 -7.53125 L 3.59375 -7.53125 C 4.0625 -7.53125 4.398438 -7.640625 4.609375 -7.859375 C 4.816406 -8.078125 4.929688 -8.425781 4.953125 -8.90625 C 5.015625 -10.570312 5.015625 -12.238281 4.953125 -13.90625 C 4.929688 -14.375 4.816406 -14.71875 4.609375 -14.9375 C 4.398438 -15.15625 4.0625 -15.265625 3.59375 -15.265625 L 2.453125 -15.265625 Z M 2.453125 -7.53125 "/></g></g></g><g fill="#ffffff" fill-opacity="1"><g transform="translate(39.0793, 20.617131)"><g><path d="M 0.53125 0 L 2.3125 -16.5 L 4.875 -16.5 L 6.625 0 L 5.21875 0 L 4.78125 -4.78125 L 2.375 -4.78125 L 1.9375 0 Z M 2.5 -6.015625 L 4.65625 -6.015625 L 4.328125 -9.625 L 3.875 -15.265625 L 3.296875 -15.265625 L 2.828125 -9.609375 Z M 2.5 -6.015625 "/></g></g></g><g fill="#ffffff" fill-opacity="1"><g transform="translate(46.587724, 20.617131)"><g><path d="M 1.09375 0 L 1.09375 -16.5 L 2.453125 -16.5 L 2.453125 -1.234375 L 5.75 -1.234375 L 5.75 0 Z M 1.09375 0 "/></g></g></g></g></g><g fill="#ffffff" fill-opacity="1"><g transform="translate(115.370242, 37.182081)"><g><path d="M 1.0625 0 L 1.0625 -16.03125 L 2.390625 -16.03125 L 2.390625 0 Z M 1.0625 0 "/></g></g></g><g fill="#ffffff" fill-opacity="1"><g transform="translate(123.308517, 37.182081)"><g><path d="M 3.734375 0.140625 C 2.804688 0.140625 2.140625 -0.0625 1.734375 -0.46875 C 1.335938 -0.875 1.128906 -1.550781 1.109375 -2.5 C 1.035156 -6.175781 1.035156 -9.832031 1.109375 -13.46875 C 1.128906 -14.445312 1.335938 -15.140625 1.734375 -15.546875 C 2.140625 -15.960938 2.804688 -16.171875 3.734375 -16.171875 C 4.609375 -16.171875 5.242188 -15.96875 5.640625 -15.5625 C 6.046875 -15.15625 6.269531 -14.484375 6.3125 -13.546875 C 6.351562 -12.523438 6.351562 -11.503906 6.3125 -10.484375 L 4.984375 -10.484375 C 5.023438 -11.566406 5.023438 -12.65625 4.984375 -13.75 C 4.953125 -14.601562 4.535156 -15.03125 3.734375 -15.03125 C 2.898438 -15.03125 2.472656 -14.601562 2.453125 -13.75 C 2.359375 -9.925781 2.359375 -6.113281 2.453125 -2.3125 C 2.453125 -1.851562 2.550781 -1.519531 2.75 -1.3125 C 2.957031 -1.101562 3.285156 -1 3.734375 -1 C 4.609375 -1 5.0625 -1.4375 5.09375 -2.3125 C 5.113281 -3.382812 5.113281 -4.472656 5.09375 -5.578125 L 3.75 -5.578125 L 3.75 -6.75 L 6.390625 -6.75 C 6.410156 -6.226562 6.421875 -5.625 6.421875 -4.9375 C 6.421875 -4.25 6.410156 -3.4375 6.390625 -2.5 C 6.347656 -1.550781 6.125 -0.875 5.71875 -0.46875 C 5.3125 -0.0625 4.648438 0.140625 3.734375 0.140625 Z M 3.734375 0.140625 "/></g></g></g><g fill="#ffffff" fill-opacity="1"><g transform="translate(134.814669, 37.182081)"><g><path d="M 1.0625 0 L 1.0625 -16.03125 L 2.390625 -16.03125 L 2.390625 -1.203125 L 5.59375 -1.203125 L 5.59375 0 Z M 1.0625 0 "/></g></g></g><g fill="#ffffff" fill-opacity="1"><g transform="translate(145.1783, 37.182081)"><g><path d="M 1.0625 0 L 1.0625 -16.03125 L 5.578125 -16.03125 L 5.578125 -14.828125 L 2.390625 -14.828125 L 2.390625 -8.65625 L 5.375 -8.65625 L 5.375 -7.484375 L 2.390625 -7.484375 L 2.390625 -1.203125 L 5.578125 -1.203125 L 5.578125 0 Z M 1.0625 0 "/></g></g></g><g fill="#ffffff" fill-opacity="1"><g transform="translate(155.782467, 37.182081)"><g><path d="M 3.75 0.140625 C 2.820312 0.140625 2.15625 -0.0625 1.75 -0.46875 C 1.351562 -0.875 1.140625 -1.550781 1.109375 -2.5 C 1.085938 -3.113281 1.078125 -3.65625 1.078125 -4.125 C 1.078125 -4.601562 1.097656 -5.160156 1.140625 -5.796875 L 2.40625 -5.796875 C 2.375 -5.203125 2.359375 -4.609375 2.359375 -4.015625 C 2.359375 -3.429688 2.375 -2.863281 2.40625 -2.3125 C 2.4375 -1.851562 2.550781 -1.519531 2.75 -1.3125 C 2.945312 -1.101562 3.28125 -1 3.75 -1 C 4.1875 -1 4.5 -1.101562 4.6875 -1.3125 C 4.882812 -1.519531 5 -1.851562 5.03125 -2.3125 C 5.0625 -2.675781 5.078125 -3.003906 5.078125 -3.296875 C 5.078125 -3.597656 5.070312 -3.90625 5.0625 -4.21875 C 5.050781 -4.53125 5.039062 -4.894531 5.03125 -5.3125 C 5.019531 -5.820312 4.945312 -6.242188 4.8125 -6.578125 C 4.6875 -6.910156 4.4375 -7.125 4.0625 -7.21875 L 3 -7.5 C 2.226562 -7.6875 1.722656 -8.023438 1.484375 -8.515625 C 1.242188 -9.015625 1.109375 -9.722656 1.078125 -10.640625 C 1.066406 -11.085938 1.0625 -11.5625 1.0625 -12.0625 C 1.070312 -12.570312 1.085938 -13.066406 1.109375 -13.546875 C 1.117188 -14.484375 1.320312 -15.15625 1.71875 -15.5625 C 2.125 -15.96875 2.800781 -16.171875 3.75 -16.171875 C 4.632812 -16.171875 5.269531 -15.96875 5.65625 -15.5625 C 6.050781 -15.15625 6.269531 -14.484375 6.3125 -13.546875 C 6.3125 -13.171875 6.3125 -12.710938 6.3125 -12.171875 C 6.3125 -11.628906 6.304688 -11.066406 6.296875 -10.484375 L 5.015625 -10.484375 C 5.023438 -11.015625 5.03125 -11.554688 5.03125 -12.109375 C 5.03125 -12.660156 5.023438 -13.207031 5.015625 -13.75 C 4.984375 -14.601562 4.554688 -15.03125 3.734375 -15.03125 C 3.273438 -15.03125 2.945312 -14.925781 2.75 -14.71875 C 2.5625 -14.507812 2.453125 -14.1875 2.421875 -13.75 C 2.398438 -13.226562 2.390625 -12.707031 2.390625 -12.1875 C 2.390625 -11.675781 2.398438 -11.160156 2.421875 -10.640625 C 2.441406 -10.046875 2.515625 -9.597656 2.640625 -9.296875 C 2.765625 -9.003906 3.023438 -8.804688 3.421875 -8.703125 L 4.40625 -8.453125 C 5.195312 -8.265625 5.710938 -7.914062 5.953125 -7.40625 C 6.203125 -6.90625 6.34375 -6.207031 6.375 -5.3125 C 6.382812 -4.894531 6.390625 -4.546875 6.390625 -4.265625 C 6.390625 -3.984375 6.382812 -3.707031 6.375 -3.4375 C 6.375 -3.175781 6.375 -2.863281 6.375 -2.5 C 6.332031 -1.550781 6.109375 -0.875 5.703125 -0.46875 C 5.304688 -0.0625 4.65625 0.140625 3.75 0.140625 Z M 3.75 0.140625 "/></g></g></g><g fill="#ffffff" fill-opacity="1"><g transform="translate(167.649416, 37.182081)"><g><path d="M 1.0625 0 L 1.0625 -16.03125 L 2.390625 -16.03125 L 2.390625 0 Z M 1.0625 0 "/></g></g></g><g fill="#ffffff" fill-opacity="1"><g transform="translate(175.527557, 37.182081)"><g><path d="M 0.515625 0 L 2.25 -16.03125 L 4.734375 -16.03125 L 6.4375 0 L 5.078125 0 L 4.65625 -4.65625 L 2.3125 -4.65625 L 1.890625 0 Z M 2.421875 -5.859375 L 4.53125 -5.859375 L 4.203125 -9.359375 L 3.765625 -14.828125 L 3.203125 -14.828125 L 2.75 -9.34375 Z M 2.421875 -5.859375 "/></g></g></g><g fill="#ffffff" fill-opacity="1"><g transform="translate(0.885845, 93.388446)"><g><path d="M 12.734375 -6.984375 C 12.734375 -4.515625 12.289062 -2.679688 11.40625 -1.484375 C 10.53125 -0.296875 9.144531 0.296875 7.25 0.296875 C 5.351562 0.296875 3.9375 -0.335938 3 -1.609375 C 2.0625 -2.878906 1.59375 -4.703125 1.59375 -7.078125 L 1.59375 -18.234375 C 1.59375 -22.046875 2.59375 -24.429688 4.59375 -25.390625 C 5.332031 -25.734375 6.226562 -25.90625 7.28125 -25.90625 C 10.875 -25.90625 12.671875 -23.632812 12.671875 -19.09375 L 12.671875 -15.578125 L 8.90625 -15.578125 L 8.90625 -18.84375 C 8.90625 -20.164062 8.789062 -21.109375 8.5625 -21.671875 C 8.34375 -22.242188 7.90625 -22.53125 7.25 -22.53125 C 6.601562 -22.53125 6.15625 -22.226562 5.90625 -21.625 C 5.65625 -21.03125 5.53125 -20.109375 5.53125 -18.859375 L 5.53125 -6.90625 C 5.53125 -5.519531 5.648438 -4.53125 5.890625 -3.9375 C 6.140625 -3.351562 6.582031 -3.0625 7.21875 -3.0625 C 7.863281 -3.0625 8.304688 -3.359375 8.546875 -3.953125 C 8.785156 -4.554688 8.90625 -5.550781 8.90625 -6.9375 L 8.90625 -10.609375 L 12.734375 -10.609375 Z M 12.734375 -6.984375 "/></g></g></g><g fill="#ffffff" fill-opacity="1"><g transform="translate(16.575918, 93.388446)"><g><path d="M 13.078125 -6.578125 C 13.078125 -4.222656 12.628906 -2.488281 11.734375 -1.375 C 10.835938 -0.257812 9.398438 0.296875 7.421875 0.296875 C 5.453125 0.296875 4.019531 -0.257812 3.125 -1.375 C 2.226562 -2.5 1.78125 -4.234375 1.78125 -6.578125 L 1.78125 -25.640625 L 5.671875 -25.640625 L 5.671875 -6.65625 C 5.671875 -5.300781 5.734375 -4.476562 5.859375 -4.1875 C 5.992188 -3.894531 6.148438 -3.628906 6.328125 -3.390625 C 6.503906 -3.160156 6.875 -3.046875 7.4375 -3.046875 C 8 -3.046875 8.398438 -3.207031 8.640625 -3.53125 C 8.890625 -3.863281 9.039062 -4.273438 9.09375 -4.765625 C 9.144531 -5.253906 9.171875 -5.882812 9.171875 -6.65625 L 9.171875 -25.640625 L 13.078125 -25.640625 Z M 13.078125 -6.578125 "/></g></g></g><g fill="#ffffff" fill-opacity="1"><g transform="translate(33.124912, 93.388446)"><g><path d="M 8.796875 -7.703125 L 7.078125 -20.5625 L 7.015625 -20.5625 L 5.4375 -7.703125 Z M 0.75 0 L 4.40625 -25.625 L 9.5625 -25.625 L 13.453125 0 L 9.8125 0 L 9.203125 -4.578125 L 5.0625 -4.578125 L 4.515625 0 Z M 0.75 0 "/></g></g></g><g fill="#ffffff" fill-opacity="1"><g transform="translate(49.033355, 93.388446)"><g><path d="M 5.8125 -3.03125 L 7.09375 -3.03125 C 7.8125 -3.03125 8.332031 -3.257812 8.65625 -3.71875 C 8.976562 -4.1875 9.140625 -5.039062 9.140625 -6.28125 L 9.125 -18.9375 C 9.125 -20.269531 8.960938 -21.21875 8.640625 -21.78125 C 8.316406 -22.34375 7.753906 -22.625 6.953125 -22.625 L 5.8125 -22.625 Z M 1.90625 0 L 1.90625 -25.625 L 7.65625 -25.625 C 9.539062 -25.625 10.90625 -25.066406 11.75 -23.953125 C 12.601562 -22.835938 13.03125 -21.203125 13.03125 -19.046875 L 13.046875 -7.484375 C 13.046875 -4.898438 12.617188 -3.003906 11.765625 -1.796875 C 10.910156 -0.597656 9.5 0 7.53125 0 Z M 1.90625 0 "/></g></g></g><g fill="#ffffff" fill-opacity="1"><g transform="translate(65.363979, 93.388446)"><g><path d="M 7.078125 -12.03125 L 5.828125 -12.09375 L 5.828125 0 L 1.921875 0 L 1.921875 -25.625 L 8.375 -25.625 C 9.707031 -25.625 10.703125 -25.351562 11.359375 -24.8125 C 12.023438 -24.269531 12.460938 -23.515625 12.671875 -22.546875 C 12.878906 -21.585938 12.984375 -20.328125 12.984375 -18.765625 C 12.984375 -17.210938 12.816406 -16.023438 12.484375 -15.203125 C 12.160156 -14.390625 11.550781 -13.84375 10.65625 -13.5625 C 11.539062 -13.40625 12.15625 -12.804688 12.5 -11.765625 C 12.851562 -10.734375 13.03125 -8.570312 13.03125 -5.28125 C 13.03125 -2 13.078125 -0.238281 13.171875 0 L 9.265625 0 C 9.171875 -0.195312 9.125 -3.257812 9.125 -9.1875 C 9.125 -10.320312 8.988281 -11.078125 8.71875 -11.453125 C 8.445312 -11.828125 7.898438 -12.019531 7.078125 -12.03125 Z M 5.84375 -15.125 L 7.390625 -15.125 C 7.890625 -15.125 8.253906 -15.234375 8.484375 -15.453125 C 8.722656 -15.679688 8.890625 -16.066406 8.984375 -16.609375 C 9.078125 -17.148438 9.125 -17.976562 9.125 -19.09375 L 9.125 -19.265625 C 9.125 -20.648438 9.003906 -21.554688 8.765625 -21.984375 C 8.535156 -22.410156 8 -22.625 7.15625 -22.625 L 5.84375 -22.625 Z M 5.84375 -15.125 "/></g></g></g><g fill="#ffffff" fill-opacity="1"><g transform="translate(81.767393, 93.388446)"><g><path d="M 8.796875 -7.703125 L 7.078125 -20.5625 L 7.015625 -20.5625 L 5.4375 -7.703125 Z M 0.75 0 L 4.40625 -25.625 L 9.5625 -25.625 L 13.453125 0 L 9.8125 0 L 9.203125 -4.578125 L 5.0625 -4.578125 L 4.515625 0 Z M 0.75 0 "/></g></g></g><g fill="#ffffff" fill-opacity="1"><g transform="translate(97.675836, 93.388446)"><g><path d="M 1.921875 0 L 1.921875 -25.625 L 4.984375 -25.625 L 10.40625 -10.25 L 10.125 -17.234375 L 10.125 -25.625 L 13.640625 -25.625 L 13.640625 0 L 10.875 0 L 5.296875 -15.90625 L 5.515625 -9.1875 L 5.515625 0 Z M 1.921875 0 "/></g></g></g><g fill="#ffffff" fill-opacity="1"><g transform="translate(114.938175, 93.388446)"><g><path d="M 6.734375 0.265625 C 5.128906 0.265625 3.867188 -0.363281 2.953125 -1.625 C 2.046875 -2.894531 1.59375 -4.851562 1.59375 -7.5 L 1.59375 -18.640625 C 1.59375 -21.003906 2.054688 -22.804688 2.984375 -24.046875 C 3.910156 -25.285156 5.382812 -25.90625 7.40625 -25.90625 C 9.925781 -25.90625 11.523438 -24.972656 12.203125 -23.109375 C 12.609375 -21.972656 12.8125 -20.429688 12.8125 -18.484375 L 12.8125 -16.671875 L 9.171875 -16.671875 L 9.171875 -19.34375 C 9.171875 -20.519531 9.046875 -21.34375 8.796875 -21.8125 C 8.546875 -22.289062 8.078125 -22.53125 7.390625 -22.53125 C 6.710938 -22.53125 6.234375 -22.242188 5.953125 -21.671875 C 5.671875 -21.109375 5.53125 -20.101562 5.53125 -18.65625 L 5.53125 -7.5625 C 5.53125 -5.875 5.65625 -4.703125 5.90625 -4.046875 C 6.15625 -3.390625 6.644531 -3.0625 7.375 -3.0625 C 8.113281 -3.0625 8.632812 -3.414062 8.9375 -4.125 C 9.25 -4.832031 9.40625 -6.023438 9.40625 -7.703125 L 9.40625 -11.15625 L 7.4375 -11.15625 L 7.4375 -13.984375 L 12.8125 -13.984375 L 12.8125 0 L 11.0625 0 L 10.46875 -2.515625 C 10.257812 -1.648438 9.8125 -0.96875 9.125 -0.46875 C 8.4375 0.0195312 7.640625 0.265625 6.734375 0.265625 Z M 6.734375 0.265625 "/></g></g></g><g fill="#ffffff" fill-opacity="1"><g transform="translate(131.195999, 93.388446)"><g><path d="M 13.078125 -6.578125 C 13.078125 -4.222656 12.628906 -2.488281 11.734375 -1.375 C 10.835938 -0.257812 9.398438 0.296875 7.421875 0.296875 C 5.453125 0.296875 4.019531 -0.257812 3.125 -1.375 C 2.226562 -2.5 1.78125 -4.234375 1.78125 -6.578125 L 1.78125 -25.640625 L 5.671875 -25.640625 L 5.671875 -6.65625 C 5.671875 -5.300781 5.734375 -4.476562 5.859375 -4.1875 C 5.992188 -3.894531 6.148438 -3.628906 6.328125 -3.390625 C 6.503906 -3.160156 6.875 -3.046875 7.4375 -3.046875 C 8 -3.046875 8.398438 -3.207031 8.640625 -3.53125 C 8.890625 -3.863281 9.039062 -4.273438 9.09375 -4.765625 C 9.144531 -5.253906 9.171875 -5.882812 9.171875 -6.65625 L 9.171875 -25.640625 L 13.078125 -25.640625 Z M 13.078125 -6.578125 "/></g></g></g><g fill="#ffffff" fill-opacity="1"><g transform="translate(147.745003, 93.388446)"><g><path d="M 1.921875 0 L 1.921875 -25.625 L 5.828125 -25.625 L 5.828125 -3.3125 L 10.75 -3.3125 L 10.75 0 Z M 1.921875 0 "/></g></g></g><g fill="#ffffff" fill-opacity="1"><g transform="translate(160.523478, 93.388446)"><g><path d="M 8.796875 -7.703125 L 7.078125 -20.5625 L 7.015625 -20.5625 L 5.4375 -7.703125 Z M 0.75 0 L 4.40625 -25.625 L 9.5625 -25.625 L 13.453125 0 L 9.8125 0 L 9.203125 -4.578125 L 5.0625 -4.578125 L 4.515625 0 Z M 0.75 0 "/></g></g></g><g fill="#ffffff" fill-opacity="1"><g transform="translate(176.431921, 93.388446)"><g><path d="M 7.078125 -12.03125 L 5.828125 -12.09375 L 5.828125 0 L 1.921875 0 L 1.921875 -25.625 L 8.375 -25.625 C 9.707031 -25.625 10.703125 -25.351562 11.359375 -24.8125 C 12.023438 -24.269531 12.460938 -23.515625 12.671875 -22.546875 C 12.878906 -21.585938 12.984375 -20.328125 12.984375 -18.765625 C 12.984375 -17.210938 12.816406 -16.023438 12.484375 -15.203125 C 12.160156 -14.390625 11.550781 -13.84375 10.65625 -13.5625 C 11.539062 -13.40625 12.15625 -12.804688 12.5 -11.765625 C 12.851562 -10.734375 13.03125 -8.570312 13.03125 -5.28125 C 13.03125 -2 13.078125 -0.238281 13.171875 0 L 9.265625 0 C 9.171875 -0.195312 9.125 -3.257812 9.125 -9.1875 C 9.125 -10.320312 8.988281 -11.078125 8.71875 -11.453125 C 8.445312 -11.828125 7.898438 -12.019531 7.078125 -12.03125 Z M 5.84375 -15.125 L 7.390625 -15.125 C 7.890625 -15.125 8.253906 -15.234375 8.484375 -15.453125 C 8.722656 -15.679688 8.890625 -16.066406 8.984375 -16.609375 C 9.078125 -17.148438 9.125 -17.976562 9.125 -19.09375 L 9.125 -19.265625 C 9.125 -20.648438 9.003906 -21.554688 8.765625 -21.984375 C 8.535156 -22.410156 8 -22.625 7.15625 -22.625 L 5.84375 -22.625 Z M 5.84375 -15.125 "/></g></g></g><g transform="matrix(1, 0, 0, 1, 98, 39)"><g clip-path="url(#e1cb85480f)"><g fill="#ffffff" fill-opacity="1"><g transform="translate(0.358893, 21.940541)"><g><path d="M 4.0625 0.15625 C 3.0625 0.15625 2.335938 -0.0664062 1.890625 -0.515625 C 1.453125 -0.960938 1.226562 -1.703125 1.21875 -2.734375 C 1.1875 -4.804688 1.171875 -6.832031 1.171875 -8.8125 C 1.171875 -10.800781 1.1875 -12.832031 1.21875 -14.90625 C 1.226562 -15.863281 1.453125 -16.582031 1.890625 -17.0625 C 2.335938 -17.550781 3.0625 -17.796875 4.0625 -17.796875 C 5.0625 -17.796875 5.785156 -17.570312 6.234375 -17.125 C 6.679688 -16.675781 6.921875 -15.9375 6.953125 -14.90625 C 6.972656 -14.625 6.984375 -14.269531 6.984375 -13.84375 C 6.984375 -13.414062 6.976562 -12.988281 6.96875 -12.5625 C 6.957031 -12.144531 6.953125 -11.800781 6.953125 -11.53125 L 5.46875 -11.53125 C 5.488281 -12.082031 5.5 -12.675781 5.5 -13.3125 C 5.507812 -13.957031 5.507812 -14.5625 5.5 -15.125 C 5.476562 -15.632812 5.359375 -16 5.140625 -16.21875 C 4.921875 -16.445312 4.5625 -16.5625 4.0625 -16.5625 C 3.570312 -16.5625 3.21875 -16.445312 3 -16.21875 C 2.789062 -16 2.679688 -15.632812 2.671875 -15.125 C 2.628906 -12.945312 2.609375 -10.847656 2.609375 -8.828125 C 2.609375 -6.816406 2.628906 -4.710938 2.671875 -2.515625 C 2.679688 -2.003906 2.796875 -1.632812 3.015625 -1.40625 C 3.242188 -1.1875 3.59375 -1.078125 4.0625 -1.078125 C 4.59375 -1.078125 4.972656 -1.1875 5.203125 -1.40625 C 5.441406 -1.632812 5.566406 -2.003906 5.578125 -2.515625 C 5.597656 -3.117188 5.601562 -3.757812 5.59375 -4.4375 C 5.582031 -5.113281 5.570312 -5.753906 5.5625 -6.359375 L 7.046875 -6.359375 C 7.054688 -5.742188 7.0625 -5.140625 7.0625 -4.546875 C 7.0625 -3.960938 7.054688 -3.359375 7.046875 -2.734375 C 7.015625 -1.703125 6.769531 -0.960938 6.3125 -0.515625 C 5.851562 -0.0664062 5.101562 0.15625 4.0625 0.15625 Z M 4.0625 0.15625 "/></g></g></g><g fill="#ffffff" fill-opacity="1"><g transform="translate(11.954547, 21.940541)"><g><path d="M 1.171875 0 L 1.171875 -17.65625 L 3.84375 -17.65625 C 4.84375 -17.65625 5.570312 -17.4375 6.03125 -17 C 6.488281 -16.5625 6.726562 -15.832031 6.75 -14.8125 C 6.800781 -13.820312 6.828125 -12.90625 6.828125 -12.0625 C 6.828125 -11.226562 6.800781 -10.410156 6.75 -9.609375 C 6.707031 -8.203125 6.234375 -7.332031 5.328125 -7 L 7.109375 0 L 5.546875 0 L 3.9375 -6.734375 L 2.625 -6.734375 L 2.625 0 Z M 2.625 -8.0625 L 3.84375 -8.0625 C 4.34375 -8.0625 4.707031 -8.175781 4.9375 -8.40625 C 5.164062 -8.644531 5.285156 -9.019531 5.296875 -9.53125 C 5.367188 -11.3125 5.367188 -13.09375 5.296875 -14.875 C 5.285156 -15.375 5.164062 -15.742188 4.9375 -15.984375 C 4.707031 -16.222656 4.34375 -16.34375 3.84375 -16.34375 L 2.625 -16.34375 Z M 2.625 -8.0625 "/></g></g></g><g fill="#ffffff" fill-opacity="1"><g transform="translate(23.32934, 21.940541)"><g><path d="M 1.171875 0 L 1.171875 -17.65625 L 2.625 -17.65625 L 2.625 0 Z M 1.171875 0 "/></g></g></g><g fill="#ffffff" fill-opacity="1"><g transform="translate(30.861211, 21.940541)"><g><path d="M 4.125 0.15625 C 3.113281 0.15625 2.382812 -0.0664062 1.9375 -0.515625 C 1.5 -0.960938 1.257812 -1.710938 1.21875 -2.765625 C 1.195312 -3.441406 1.1875 -4.039062 1.1875 -4.5625 C 1.1875 -5.082031 1.210938 -5.6875 1.265625 -6.375 L 2.65625 -6.375 C 2.625 -5.726562 2.609375 -5.082031 2.609375 -4.4375 C 2.609375 -3.789062 2.625 -3.15625 2.65625 -2.53125 C 2.675781 -2.03125 2.796875 -1.664062 3.015625 -1.4375 C 3.242188 -1.21875 3.613281 -1.109375 4.125 -1.109375 C 4.613281 -1.109375 4.960938 -1.21875 5.171875 -1.4375 C 5.390625 -1.664062 5.515625 -2.03125 5.546875 -2.53125 C 5.566406 -2.945312 5.578125 -3.316406 5.578125 -3.640625 C 5.578125 -3.960938 5.570312 -4.296875 5.5625 -4.640625 C 5.5625 -4.992188 5.554688 -5.394531 5.546875 -5.84375 C 5.523438 -6.40625 5.441406 -6.867188 5.296875 -7.234375 C 5.160156 -7.609375 4.890625 -7.847656 4.484375 -7.953125 L 3.3125 -8.25 C 2.457031 -8.457031 1.894531 -8.832031 1.625 -9.375 C 1.363281 -9.925781 1.21875 -10.707031 1.1875 -11.71875 C 1.175781 -12.207031 1.171875 -12.726562 1.171875 -13.28125 C 1.179688 -13.84375 1.195312 -14.390625 1.21875 -14.921875 C 1.226562 -15.953125 1.453125 -16.691406 1.890625 -17.140625 C 2.335938 -17.585938 3.082031 -17.8125 4.125 -17.8125 C 5.09375 -17.8125 5.796875 -17.585938 6.234375 -17.140625 C 6.671875 -16.691406 6.910156 -15.953125 6.953125 -14.921875 C 6.953125 -14.515625 6.953125 -14.007812 6.953125 -13.40625 C 6.953125 -12.8125 6.945312 -12.191406 6.9375 -11.546875 L 5.515625 -11.546875 C 5.535156 -12.140625 5.546875 -12.734375 5.546875 -13.328125 C 5.546875 -13.929688 5.535156 -14.535156 5.515625 -15.140625 C 5.484375 -16.085938 5.015625 -16.5625 4.109375 -16.5625 C 3.609375 -16.5625 3.25 -16.445312 3.03125 -16.21875 C 2.820312 -15.988281 2.703125 -15.628906 2.671875 -15.140625 C 2.640625 -14.566406 2.625 -13.992188 2.625 -13.421875 C 2.625 -12.859375 2.640625 -12.289062 2.671875 -11.71875 C 2.679688 -11.0625 2.753906 -10.570312 2.890625 -10.25 C 3.035156 -9.925781 3.332031 -9.703125 3.78125 -9.578125 L 4.859375 -9.3125 C 5.722656 -9.113281 6.289062 -8.734375 6.5625 -8.171875 C 6.84375 -7.609375 6.992188 -6.832031 7.015625 -5.84375 C 7.035156 -5.394531 7.046875 -5.015625 7.046875 -4.703125 C 7.046875 -4.390625 7.039062 -4.085938 7.03125 -3.796875 C 7.019531 -3.503906 7.015625 -3.160156 7.015625 -2.765625 C 6.972656 -1.710938 6.726562 -0.960938 6.28125 -0.515625 C 5.84375 -0.0664062 5.125 0.15625 4.125 0.15625 Z M 4.125 0.15625 "/></g></g></g><g fill="#ffffff" fill-opacity="1"><g transform="translate(42.346441, 21.940541)"><g><path d="M 2.828125 0 L 2.828125 -16.34375 L 0.578125 -16.34375 L 0.578125 -17.65625 L 6.53125 -17.65625 L 6.53125 -16.34375 L 4.3125 -16.34375 L 4.3125 0 Z M 2.828125 0 "/></g></g></g><g fill="#ffffff" fill-opacity="1"><g transform="translate(52.992409, 21.940541)"><g><path d="M 1.171875 0 L 1.171875 -17.65625 L 2.625 -17.65625 L 2.625 0 Z M 1.171875 0 "/></g></g></g><g fill="#ffffff" fill-opacity="1"><g transform="translate(60.458022, 21.940541)"><g><path d="M 0.578125 0 L 2.46875 -17.65625 L 5.203125 -17.65625 L 7.09375 0 L 5.578125 0 L 5.125 -5.125 L 2.53125 -5.125 L 2.078125 0 Z M 2.671875 -6.453125 L 4.984375 -6.453125 L 4.640625 -10.3125 L 4.15625 -16.34375 L 3.53125 -16.34375 L 3.03125 -10.28125 Z M 2.671875 -6.453125 "/></g></g></g><g fill="#ffffff" fill-opacity="1"><g transform="translate(71.656132, 21.940541)"><g><path d="M 1.171875 0 L 1.171875 -17.65625 L 3.796875 -17.65625 L 4.75 -12.078125 L 6.40625 -1.328125 L 6.859375 -1.328125 L 6.640625 -11.453125 L 6.53125 -17.65625 L 7.96875 -17.65625 L 7.96875 0 L 5.28125 0 L 4.234375 -6.34375 L 2.765625 -16.34375 L 2.296875 -16.34375 L 2.5 -6.671875 L 2.609375 0 Z M 1.171875 0 "/></g></g></g><g fill="#ffffff" fill-opacity="1"><g transform="translate(84.4665, 21.940541)"><g><path d="M 0.578125 0 L 2.46875 -17.65625 L 5.203125 -17.65625 L 7.09375 0 L 5.578125 0 L 5.125 -5.125 L 2.53125 -5.125 L 2.078125 0 Z M 2.671875 -6.453125 L 4.984375 -6.453125 L 4.640625 -10.3125 L 4.15625 -16.34375 L 3.53125 -16.34375 L 3.03125 -10.28125 Z M 2.671875 -6.453125 "/></g></g></g></g></g></g></g></svg>