<?xml version="1.0" encoding="UTF-8"?>
<svg id="Capa_1" data-name="Capa 1" xmlns="http://www.w3.org/2000/svg" viewBox="0 0 145 158">
  <defs>
    <style>
      .cls-1 {
        fill: #f1e7f2;
      }

      .cls-2 {
        fill: #fdfbfd;
      }

      .cls-3 {
        fill: #74226f;
      }
    </style>
  </defs>
  <circle class="cls-3" cx="72.5" cy="79" r="60.5"/>
  <g>
    <path class="cls-2" d="M107.91,66.96c.01.17.83.61,1,1-1.48,4.16-6.73,31.14-8.07,32.11-18.93-4.05-38.69-4.4-57.61.08l-8.62-33.2c-.04-.79,1-.93,1-1,5.8,9.39,11.48,19.17,24.5,13.96,5.36-2.15,9.91-12.47,10.47-17.74.25-2.36-2.17-7.37.69-8.25,6-1.85,1.7,5.64,1.7,6.33.04,3.45,5.23,15.47,8.32,17.76,11.6,8.62,20.98-1.35,26.61-11.05Z"/>
    <path class="cls-1" d="M107.91,66.96c-.35-4.13-.56-9.39,5.01-8.03,1.43,5-2.7,5.34-4.01,9.03-.18-.39-.99-.84-1-1Z"/>
    <path class="cls-1" d="M35.62,65.96c0,.07-1.04.21-1,1-4.53-2.54-6.53-9.83.55-7.06.2.28.51,5.31.46,6.05Z"/>
  </g>
</svg>