<?xml version="1.0" encoding="UTF-8"?>
<svg id="Capa_1" data-name="Capa 1" xmlns="http://www.w3.org/2000/svg" viewBox="0 0 155 152">
  <defs>
    <style>
      .cls-1 {
        fill: #1e417f;
      }

      .cls-2 {
        fill: #fbfcfd;
      }
    </style>
  </defs>
  <circle class="cls-1" cx="76.5" cy="76.5" r="60.5"/>
  <path class="cls-2" d="M91.66,36.27c2.86,15.99,10.19,29.63-4.95,41.47-1.8,1.41-5.48,1.89-6.3,3.81-2.29,5.34.36,17.13-.72,23.29.22,1.28,13.82,1.07,13.87,6.12-4.61,6.99-26.92,6.74-30.92,1.03-3.38-4.82,10.03-6.37,13.05-6.62-.63-4.98,1.51-21.51-1.21-24.79-.78-.94-7.44-3.42-9.82-5.75-3.45-3.38-5.64-9.15-5.61-13.92.03-3.35,2.75-19.95,3.8-23.09.46-1.39,1.06-1.44,2.34-1.68,2.32-.44,25.36-.58,26.47.13Z"/>
</svg>