<?xml version="1.0" encoding="UTF-8"?>
<svg id="Capa_1" data-name="Capa 1" xmlns="http://www.w3.org/2000/svg" viewBox="0 0 145 145">
  <defs>
    <style>
      .cls-1 {
        fill: #fefcf8;
      }

      .cls-2 {
        fill: #fffefc;
      }

      .cls-3 {
        fill: #dc9a19;
      }
    </style>
  </defs>
  <circle class="cls-3" cx="74.5" cy="73.5" r="60.5"/>
  <g>
    <path class="cls-2" d="M86.06,73.97c8.2-3.4,9.33-16.06,20.07-6.52-12.56,4.63-2.25,14.99-12.02,24.11-11.36,10.59-25.49.94-35.68,9.5-2.74,2.31-2.87,6.67-7.5,4.53-3.29-1.52-4.84-9.07-2.84-11.36.46-.53,11.46-2.61,13.25-4.32l8.65-5.89c-19.05-3.73-30.11-21.56-31.11-40.17,8.2,6.99,16.44,11.98,27.05,14.61,10.03,2.48,20.94.32,20.14,15.51Z"/>
    <path class="cls-1" d="M88.07,69.95c-.27-4.67-2.51-9.72-7.09-11.5-3.99-1.56-5.47,1.5-4.99-4.06s8.1-13.04,13.06-15.56c-.47,5.56-1.46,10.89-.98,16.55.43,5.06,5.16,12.42,0,14.57Z"/>
  </g>
</svg>